<svg width="303" height="37" viewBox="0 0 303 37" fill="none" xmlns="http://www.w3.org/2000/svg">
<line opacity="0.2" y1="-1" x2="40.6184" y2="-1" transform="matrix(0.697127 -0.716948 0.738909 0.673805 2 32.1213)" stroke="black" stroke-width="2"/>
<line opacity="0.2" x1="34.3485" y1="12.2413" x2="43.6647" y2="4.24134" stroke="black" stroke-width="2"/>
<line x1="28.848" y1="1.47" x2="38.848" y2="17.47" stroke="black" stroke-width="2"/>
<line x1="43.848" y1="2.47" x2="53.848" y2="18.47" stroke="black" stroke-width="2"/>
<path d="M32.3965 31.7207C32.3965 32.4746 32.123 33.0625 31.5762 33.4844C31.0293 33.9062 30.2871 34.1172 29.3496 34.1172C28.334 34.1172 27.5527 33.9863 27.0059 33.7246V32.7637C27.3574 32.9121 27.7402 33.0293 28.1543 33.1152C28.5684 33.2012 28.9785 33.2441 29.3848 33.2441C30.0488 33.2441 30.5488 33.1191 30.8848 32.8691C31.2207 32.6152 31.3887 32.2637 31.3887 31.8145C31.3887 31.5176 31.3281 31.2754 31.207 31.0879C31.0898 30.8965 30.8906 30.7207 30.6094 30.5605C30.332 30.4004 29.9082 30.2188 29.3379 30.0156C28.541 29.7305 27.9707 29.3926 27.627 29.002C27.2871 28.6113 27.1172 28.1016 27.1172 27.4727C27.1172 26.8125 27.3652 26.2871 27.8613 25.8965C28.3574 25.5059 29.0137 25.3105 29.8301 25.3105C30.6816 25.3105 31.4648 25.4668 32.1797 25.7793L31.8691 26.6465C31.1621 26.3496 30.4746 26.2012 29.8066 26.2012C29.2793 26.2012 28.8672 26.3145 28.5703 26.541C28.2734 26.7676 28.125 27.082 28.125 27.4844C28.125 27.7812 28.1797 28.0254 28.2891 28.2168C28.3984 28.4043 28.582 28.5781 28.8398 28.7383C29.1016 28.8945 29.5 29.0684 30.0352 29.2598C30.9336 29.5801 31.5508 29.9238 31.8867 30.291C32.2266 30.6582 32.3965 31.1348 32.3965 31.7207ZM39.5801 27.9297C39.5801 28.7969 39.2832 29.4648 38.6895 29.9336C38.0996 30.3984 37.2539 30.6309 36.1523 30.6309H35.1445V34H34.1484V25.4336H36.3691C38.5098 25.4336 39.5801 26.2656 39.5801 27.9297ZM35.1445 29.7754H36.041C36.9238 29.7754 37.5625 29.6328 37.957 29.3477C38.3516 29.0625 38.5488 28.6055 38.5488 27.9766C38.5488 27.4102 38.3633 26.9883 37.9922 26.7109C37.6211 26.4336 37.043 26.2949 36.2578 26.2949H35.1445V29.7754ZM48.8145 29.7051C48.8145 31.0762 48.4668 32.1543 47.7715 32.9395C47.0801 33.7246 46.1172 34.1172 44.8828 34.1172C43.6211 34.1172 42.6465 33.7324 41.959 32.9629C41.2754 32.1895 40.9336 31.0996 40.9336 29.6934C40.9336 28.2988 41.2773 27.2188 41.9648 26.4531C42.6523 25.6836 43.6289 25.2988 44.8945 25.2988C46.125 25.2988 47.0859 25.6895 47.7773 26.4707C48.4688 27.252 48.8145 28.3301 48.8145 29.7051ZM41.9883 29.7051C41.9883 30.8652 42.2344 31.7461 42.7266 32.3477C43.2227 32.9453 43.9414 33.2441 44.8828 33.2441C45.832 33.2441 46.5488 32.9453 47.0332 32.3477C47.5176 31.75 47.7598 30.8691 47.7598 29.7051C47.7598 28.5527 47.5176 27.6797 47.0332 27.0859C46.5527 26.4883 45.8398 26.1895 44.8945 26.1895C43.9453 26.1895 43.2227 26.4902 42.7266 27.0918C42.2344 27.6895 41.9883 28.5605 41.9883 29.7051ZM51.7266 30.4375V34H50.7305V25.4336H53.0801C54.1309 25.4336 54.9062 25.6348 55.4062 26.0371C55.9102 26.4395 56.1621 27.0449 56.1621 27.8535C56.1621 28.9863 55.5879 29.752 54.4395 30.1504L56.7656 34H55.5879L53.5137 30.4375H51.7266ZM51.7266 29.582H53.0918C53.7949 29.582 54.3105 29.4434 54.6387 29.166C54.9668 28.8848 55.1309 28.4648 55.1309 27.9062C55.1309 27.3398 54.9629 26.9316 54.627 26.6816C54.2949 26.4316 53.7598 26.3066 53.0215 26.3066H51.7266V29.582ZM60.7852 34H59.7891V26.3184H57.0762V25.4336H63.498V26.3184H60.7852V34Z" fill="black"/>
<path d="M85.3546 27.7949C84.8663 27.7949 84.4894 27.9648 84.2237 28.3047C83.962 28.6445 83.8312 29.1152 83.8312 29.7168C83.8312 30.373 83.9542 30.8594 84.2003 31.1758C84.4503 31.4922 84.8312 31.6504 85.3429 31.6504C85.6788 31.6504 86.0909 31.5625 86.5792 31.3867V32.1133C86.3917 32.1914 86.1984 32.2578 85.9991 32.3125C85.8038 32.3672 85.5695 32.3945 85.296 32.3945C84.5382 32.3945 83.9562 32.1602 83.5499 31.6914C83.1437 31.2188 82.9405 30.5605 82.9405 29.7168C82.9405 28.9004 83.1554 28.252 83.5851 27.7715C84.0187 27.291 84.6085 27.0508 85.3546 27.0508C85.8546 27.0508 86.3351 27.168 86.796 27.4023L86.4562 28.0938C86.0343 27.8945 85.6671 27.7949 85.3546 27.7949ZM80.7081 29.7168C80.7081 28.9355 80.9034 28.2031 81.2941 27.5195C81.6847 26.8359 82.2218 26.2969 82.9054 25.9023C83.589 25.5078 84.3253 25.3105 85.1144 25.3105C85.8956 25.3105 86.628 25.5059 87.3116 25.8965C87.9952 26.2871 88.5343 26.8242 88.9288 27.5078C89.3234 28.1914 89.5206 28.9277 89.5206 29.7168C89.5206 30.4863 89.3312 31.209 88.9523 31.8848C88.5734 32.5605 88.0421 33.1016 87.3585 33.5078C86.6749 33.9141 85.9269 34.1172 85.1144 34.1172C84.3058 34.1172 83.5597 33.916 82.8761 33.5137C82.1925 33.1074 81.6593 32.5664 81.2765 31.8906C80.8976 31.2148 80.7081 30.4902 80.7081 29.7168ZM81.3234 29.7168C81.3234 30.3926 81.4933 31.0254 81.8331 31.6152C82.173 32.2012 82.6359 32.6641 83.2218 33.0039C83.8116 33.3398 84.4425 33.5078 85.1144 33.5078C85.7941 33.5078 86.4249 33.3379 87.007 32.998C87.589 32.6582 88.0499 32.1992 88.3898 31.6211C88.7335 31.0391 88.9054 30.4043 88.9054 29.7168C88.9054 29.0371 88.7355 28.4062 88.3956 27.8242C88.0558 27.2422 87.5948 26.7812 87.0128 26.4414C86.4347 26.0977 85.8019 25.9258 85.1144 25.9258C84.4347 25.9258 83.8038 26.0957 83.2218 26.4355C82.6398 26.7754 82.1769 27.2363 81.8331 27.8184C81.4933 28.3965 81.3234 29.0293 81.3234 29.7168ZM98.9125 34L96.0062 26.4062H95.9594C96.0141 27.0078 96.0414 27.7227 96.0414 28.5508V34H95.1215V25.4336H96.6215L99.3344 32.5H99.3812L102.118 25.4336H103.606V34H102.61V28.4805C102.61 27.8477 102.637 27.1602 102.692 26.418H102.645L99.7152 34H98.9125ZM105.636 31.2285V30.3379H108.513V31.2285H105.636ZM115.382 31.7207C115.382 32.4746 115.109 33.0625 114.562 33.4844C114.015 33.9062 113.273 34.1172 112.336 34.1172C111.32 34.1172 110.539 33.9863 109.992 33.7246V32.7637C110.343 32.9121 110.726 33.0293 111.14 33.1152C111.554 33.2012 111.965 33.2441 112.371 33.2441C113.035 33.2441 113.535 33.1191 113.871 32.8691C114.207 32.6152 114.375 32.2637 114.375 31.8145C114.375 31.5176 114.314 31.2754 114.193 31.0879C114.076 30.8965 113.877 30.7207 113.595 30.5605C113.318 30.4004 112.894 30.2188 112.324 30.0156C111.527 29.7305 110.957 29.3926 110.613 29.002C110.273 28.6113 110.103 28.1016 110.103 27.4727C110.103 26.8125 110.351 26.2871 110.847 25.8965C111.343 25.5059 112 25.3105 112.816 25.3105C113.668 25.3105 114.451 25.4668 115.166 25.7793L114.855 26.6465C114.148 26.3496 113.461 26.2012 112.793 26.2012C112.265 26.2012 111.853 26.3145 111.556 26.541C111.259 26.7676 111.111 27.082 111.111 27.4844C111.111 27.7812 111.166 28.0254 111.275 28.2168C111.384 28.4043 111.568 28.5781 111.826 28.7383C112.088 28.8945 112.486 29.0684 113.021 29.2598C113.92 29.5801 114.537 29.9238 114.873 30.291C115.213 30.6582 115.382 31.1348 115.382 31.7207ZM122.926 27.9297C122.926 28.7969 122.629 29.4648 122.035 29.9336C121.446 30.3984 120.6 30.6309 119.498 30.6309H118.491V34H117.494V25.4336H119.715C121.856 25.4336 122.926 26.2656 122.926 27.9297ZM118.491 29.7754H119.387C120.27 29.7754 120.909 29.6328 121.303 29.3477C121.698 29.0625 121.895 28.6055 121.895 27.9766C121.895 27.4102 121.709 26.9883 121.338 26.7109C120.967 26.4336 120.389 26.2949 119.604 26.2949H118.491V29.7754ZM132.52 29.7051C132.52 31.0762 132.173 32.1543 131.477 32.9395C130.786 33.7246 129.823 34.1172 128.589 34.1172C127.327 34.1172 126.352 33.7324 125.665 32.9629C124.981 32.1895 124.64 31.0996 124.64 29.6934C124.64 28.2988 124.983 27.2188 125.671 26.4531C126.358 25.6836 127.335 25.2988 128.601 25.2988C129.831 25.2988 130.792 25.6895 131.483 26.4707C132.175 27.252 132.52 28.3301 132.52 29.7051ZM125.694 29.7051C125.694 30.8652 125.94 31.7461 126.433 32.3477C126.929 32.9453 127.647 33.2441 128.589 33.2441C129.538 33.2441 130.255 32.9453 130.739 32.3477C131.224 31.75 131.466 30.8691 131.466 29.7051C131.466 28.5527 131.224 27.6797 130.739 27.0859C130.259 26.4883 129.546 26.1895 128.601 26.1895C127.651 26.1895 126.929 26.4902 126.433 27.0918C125.94 27.6895 125.694 28.5605 125.694 29.7051ZM135.793 30.4375V34H134.796V25.4336H137.146C138.197 25.4336 138.972 25.6348 139.472 26.0371C139.976 26.4395 140.228 27.0449 140.228 27.8535C140.228 28.9863 139.654 29.752 138.505 30.1504L140.832 34H139.654L137.58 30.4375H135.793ZM135.793 29.582H137.158C137.861 29.582 138.377 29.4434 138.705 29.166C139.033 28.8848 139.197 28.4648 139.197 27.9062C139.197 27.3398 139.029 26.9316 138.693 26.6816C138.361 26.4316 137.826 26.3066 137.087 26.3066H135.793V29.582ZM145.211 34H144.215V26.3184H141.502V25.4336H147.924V26.3184H145.211V34ZM149.292 33.3789C149.292 33.1172 149.35 32.9199 149.468 32.7871C149.589 32.6504 149.761 32.582 149.983 32.582C150.21 32.582 150.386 32.6504 150.511 32.7871C150.64 32.9199 150.704 33.1172 150.704 33.3789C150.704 33.6328 150.64 33.8281 150.511 33.9648C150.382 34.1016 150.206 34.1699 149.983 34.1699C149.784 34.1699 149.618 34.1094 149.485 33.9883C149.356 33.8633 149.292 33.6602 149.292 33.3789ZM155.558 34.1172C154.628 34.1172 153.908 33.832 153.396 33.2617C152.888 32.6875 152.634 31.877 152.634 30.8301C152.634 29.7559 152.892 28.9258 153.408 28.3398C153.927 27.7539 154.666 27.4609 155.623 27.4609C155.931 27.4609 156.24 27.4941 156.548 27.5605C156.857 27.627 157.099 27.7051 157.275 27.7949L156.976 28.6211C156.761 28.5352 156.527 28.4648 156.273 28.4102C156.019 28.3516 155.794 28.3223 155.599 28.3223C154.294 28.3223 153.642 29.1543 153.642 30.8184C153.642 31.6074 153.8 32.2129 154.117 32.6348C154.437 33.0566 154.91 33.2676 155.535 33.2676C156.07 33.2676 156.619 33.1523 157.181 32.9219V33.7832C156.751 34.0059 156.21 34.1172 155.558 34.1172ZM164.613 30.7832C164.613 31.8301 164.35 32.6484 163.822 33.2383C163.295 33.8242 162.567 34.1172 161.637 34.1172C161.063 34.1172 160.553 33.9824 160.108 33.7129C159.662 33.4434 159.319 33.0566 159.076 32.5527C158.834 32.0488 158.713 31.459 158.713 30.7832C158.713 29.7363 158.975 28.9219 159.498 28.3398C160.022 27.7539 160.748 27.4609 161.678 27.4609C162.576 27.4609 163.289 27.7598 163.817 28.3574C164.348 28.9551 164.613 29.7637 164.613 30.7832ZM159.721 30.7832C159.721 31.6035 159.885 32.2285 160.213 32.6582C160.541 33.0879 161.024 33.3027 161.66 33.3027C162.297 33.3027 162.779 33.0898 163.108 32.6641C163.44 32.2344 163.606 31.6074 163.606 30.7832C163.606 29.9668 163.44 29.3477 163.108 28.9258C162.779 28.5 162.293 28.2871 161.649 28.2871C161.012 28.2871 160.531 28.4961 160.207 28.9141C159.883 29.332 159.721 29.9551 159.721 30.7832ZM174.87 34V29.8223C174.87 29.3105 174.761 28.9277 174.542 28.6738C174.323 28.416 173.983 28.2871 173.522 28.2871C172.917 28.2871 172.47 28.4609 172.18 28.8086C171.891 29.1562 171.747 29.6914 171.747 30.4141V34H170.774V29.8223C170.774 29.3105 170.665 28.9277 170.446 28.6738C170.227 28.416 169.886 28.2871 169.421 28.2871C168.811 28.2871 168.364 28.4707 168.079 28.8379C167.798 29.2012 167.657 29.7988 167.657 30.6309V34H166.684V27.5781H167.475L167.634 28.457H167.68C167.864 28.1445 168.122 27.9004 168.454 27.7246C168.79 27.5488 169.165 27.4609 169.579 27.4609C170.583 27.4609 171.239 27.8242 171.548 28.5508H171.595C171.786 28.2148 172.063 27.9492 172.427 27.7539C172.79 27.5586 173.204 27.4609 173.669 27.4609C174.395 27.4609 174.938 27.6484 175.298 28.0234C175.661 28.3945 175.843 28.9902 175.843 29.8105V34H174.87ZM181.139 31.2285V30.3379H186.178V31.2285H181.139ZM197.058 34L195.992 31.2754H192.558L191.503 34H190.495L193.882 25.3984H194.72L198.089 34H197.058ZM195.681 30.3789L194.685 27.7246C194.556 27.3887 194.423 26.9766 194.286 26.4883C194.201 26.8633 194.077 27.2754 193.917 27.7246L192.91 30.3789H195.681ZM200.453 34H199.48V24.8828H200.453V34ZM203.848 34H202.876V24.8828H203.848V34ZM210.891 30.4375V34H209.894V25.4336H212.244C213.295 25.4336 214.07 25.6348 214.57 26.0371C215.074 26.4395 215.326 27.0449 215.326 27.8535C215.326 28.9863 214.752 29.752 213.603 30.1504L215.93 34H214.752L212.678 30.4375H210.891ZM210.891 29.582H212.256C212.959 29.582 213.475 29.4434 213.803 29.166C214.131 28.8848 214.295 28.4648 214.295 27.9062C214.295 27.3398 214.127 26.9316 213.791 26.6816C213.459 26.4316 212.924 26.3066 212.185 26.3066H210.891V29.582ZM218.499 34H217.526V27.5781H218.499V34ZM217.444 25.8379C217.444 25.6152 217.499 25.4531 217.608 25.3516C217.717 25.2461 217.854 25.1934 218.018 25.1934C218.174 25.1934 218.309 25.2461 218.422 25.3516C218.536 25.457 218.592 25.6191 218.592 25.8379C218.592 26.0566 218.536 26.2207 218.422 26.3301C218.309 26.4355 218.174 26.4883 218.018 26.4883C217.854 26.4883 217.717 26.4355 217.608 26.3301C217.499 26.2207 217.444 26.0566 217.444 25.8379ZM226.177 27.5781V28.1934L224.987 28.334C225.097 28.4707 225.195 28.6504 225.28 28.873C225.366 29.0918 225.409 29.3398 225.409 29.6172C225.409 30.2461 225.195 30.748 224.765 31.123C224.335 31.498 223.745 31.6855 222.995 31.6855C222.804 31.6855 222.624 31.6699 222.456 31.6387C222.042 31.8574 221.835 32.1328 221.835 32.4648C221.835 32.6406 221.907 32.7715 222.052 32.8574C222.196 32.9395 222.445 32.9805 222.796 32.9805H223.933C224.628 32.9805 225.161 33.127 225.532 33.4199C225.907 33.7129 226.095 34.1387 226.095 34.6973C226.095 35.4082 225.81 35.9492 225.239 36.3203C224.669 36.6953 223.837 36.8828 222.743 36.8828C221.904 36.8828 221.255 36.7266 220.798 36.4141C220.345 36.1016 220.118 35.6602 220.118 35.0898C220.118 34.6992 220.243 34.3613 220.493 34.0762C220.743 33.791 221.095 33.5977 221.548 33.4961C221.384 33.4219 221.245 33.3066 221.132 33.1504C221.023 32.9941 220.968 32.8125 220.968 32.6055C220.968 32.3711 221.03 32.166 221.155 31.9902C221.28 31.8145 221.478 31.6445 221.747 31.4805C221.415 31.3438 221.144 31.1113 220.933 30.7832C220.726 30.4551 220.622 30.0801 220.622 29.6582C220.622 28.9551 220.833 28.4141 221.255 28.0352C221.677 27.6523 222.275 27.4609 223.048 27.4609C223.384 27.4609 223.687 27.5 223.956 27.5781H226.177ZM221.056 35.0781C221.056 35.4258 221.202 35.6895 221.495 35.8691C221.788 36.0488 222.208 36.1387 222.755 36.1387C223.571 36.1387 224.175 36.0156 224.566 35.7695C224.96 35.5273 225.157 35.1973 225.157 34.7793C225.157 34.4316 225.05 34.1895 224.835 34.0527C224.62 33.9199 224.216 33.8535 223.622 33.8535H222.456C222.015 33.8535 221.671 33.959 221.425 34.1699C221.179 34.3809 221.056 34.6836 221.056 35.0781ZM221.583 29.6348C221.583 30.084 221.71 30.4238 221.964 30.6543C222.218 30.8848 222.571 31 223.025 31C223.974 31 224.448 30.5391 224.448 29.6172C224.448 28.6523 223.968 28.1699 223.007 28.1699C222.55 28.1699 222.198 28.293 221.952 28.5391C221.706 28.7852 221.583 29.1504 221.583 29.6348ZM232.25 34V29.8457C232.25 29.3223 232.131 28.9316 231.892 28.6738C231.654 28.416 231.281 28.2871 230.773 28.2871C230.098 28.2871 229.603 28.4707 229.291 28.8379C228.982 29.2051 228.828 29.8066 228.828 30.6426V34H227.855V24.8828H228.828V27.6426C228.828 27.9746 228.812 28.25 228.781 28.4688H228.84C229.031 28.1602 229.303 27.918 229.654 27.7422C230.01 27.5625 230.414 27.4727 230.867 27.4727C231.652 27.4727 232.24 27.6602 232.631 28.0352C233.025 28.4062 233.223 28.998 233.223 29.8105V34H232.25ZM237.661 33.3145C237.832 33.3145 237.999 33.3027 238.159 33.2793C238.319 33.252 238.446 33.2246 238.54 33.1973V33.9414C238.434 33.9922 238.278 34.0332 238.071 34.0645C237.868 34.0996 237.684 34.1172 237.52 34.1172C236.278 34.1172 235.657 33.4629 235.657 32.1543V28.334H234.737V27.8652L235.657 27.4609L236.067 26.0898H236.629V27.5781H238.493V28.334H236.629V32.1133C236.629 32.5 236.721 32.7969 236.905 33.0039C237.088 33.2109 237.34 33.3145 237.661 33.3145ZM244.331 32.248C244.331 32.8457 244.109 33.3066 243.663 33.6309C243.218 33.9551 242.593 34.1172 241.788 34.1172C240.937 34.1172 240.273 33.9824 239.796 33.7129V32.8105C240.105 32.9668 240.435 33.0898 240.786 33.1797C241.142 33.2695 241.484 33.3145 241.812 33.3145C242.319 33.3145 242.71 33.2344 242.984 33.0742C243.257 32.9102 243.394 32.6621 243.394 32.3301C243.394 32.0801 243.284 31.8672 243.066 31.6914C242.851 31.5117 242.429 31.3008 241.8 31.0586C241.202 30.8359 240.776 30.6426 240.523 30.4785C240.273 30.3105 240.085 30.1211 239.96 29.9102C239.839 29.6992 239.778 29.4473 239.778 29.1543C239.778 28.6309 239.991 28.2188 240.417 27.918C240.843 27.6133 241.427 27.4609 242.169 27.4609C242.86 27.4609 243.536 27.6016 244.196 27.8828L243.851 28.6738C243.206 28.4082 242.622 28.2754 242.099 28.2754C241.638 28.2754 241.29 28.3477 241.056 28.4922C240.821 28.6367 240.704 28.8359 240.704 29.0898C240.704 29.2617 240.747 29.4082 240.833 29.5293C240.923 29.6504 241.066 29.7656 241.261 29.875C241.456 29.9844 241.831 30.1426 242.386 30.3496C243.148 30.627 243.661 30.9062 243.927 31.1875C244.196 31.4688 244.331 31.8223 244.331 32.248ZM250.899 30.4375V34H249.903V25.4336H252.252C253.303 25.4336 254.079 25.6348 254.579 26.0371C255.082 26.4395 255.334 27.0449 255.334 27.8535C255.334 28.9863 254.76 29.752 253.612 30.1504L255.938 34H254.76L252.686 30.4375H250.899ZM250.899 29.582H252.264C252.967 29.582 253.483 29.4434 253.811 29.166C254.139 28.8848 254.303 28.4648 254.303 27.9062C254.303 27.3398 254.135 26.9316 253.799 26.6816C253.467 26.4316 252.932 26.3066 252.194 26.3066H250.899V29.582ZM260.247 34.1172C259.298 34.1172 258.548 33.8281 257.997 33.25C257.45 32.6719 257.177 31.8691 257.177 30.8418C257.177 29.8066 257.431 28.9844 257.939 28.375C258.45 27.7656 259.136 27.4609 259.995 27.4609C260.8 27.4609 261.437 27.7266 261.905 28.2578C262.374 28.7852 262.608 29.4824 262.608 30.3496V30.9648H258.185C258.204 31.7188 258.394 32.291 258.753 32.6816C259.116 33.0723 259.626 33.2676 260.282 33.2676C260.974 33.2676 261.657 33.123 262.333 32.834V33.7012C261.989 33.8496 261.663 33.9551 261.355 34.0176C261.05 34.084 260.681 34.1172 260.247 34.1172ZM259.983 28.2754C259.468 28.2754 259.056 28.4434 258.747 28.7793C258.442 29.1152 258.263 29.5801 258.208 30.1738H261.565C261.565 29.5605 261.429 29.0918 261.155 28.7676C260.882 28.4395 260.491 28.2754 259.983 28.2754ZM268.775 32.248C268.775 32.8457 268.552 33.3066 268.107 33.6309C267.662 33.9551 267.037 34.1172 266.232 34.1172C265.381 34.1172 264.716 33.9824 264.24 33.7129V32.8105C264.549 32.9668 264.879 33.0898 265.23 33.1797C265.586 33.2695 265.927 33.3145 266.256 33.3145C266.763 33.3145 267.154 33.2344 267.427 33.0742C267.701 32.9102 267.838 32.6621 267.838 32.3301C267.838 32.0801 267.728 31.8672 267.509 31.6914C267.295 31.5117 266.873 31.3008 266.244 31.0586C265.646 30.8359 265.22 30.6426 264.966 30.4785C264.716 30.3105 264.529 30.1211 264.404 29.9102C264.283 29.6992 264.222 29.4473 264.222 29.1543C264.222 28.6309 264.435 28.2188 264.861 27.918C265.287 27.6133 265.871 27.4609 266.613 27.4609C267.304 27.4609 267.98 27.6016 268.64 27.8828L268.295 28.6738C267.65 28.4082 267.066 28.2754 266.543 28.2754C266.082 28.2754 265.734 28.3477 265.5 28.4922C265.265 28.6367 265.148 28.8359 265.148 29.0898C265.148 29.2617 265.191 29.4082 265.277 29.5293C265.367 29.6504 265.509 29.7656 265.705 29.875C265.9 29.9844 266.275 30.1426 266.83 30.3496C267.591 30.627 268.105 30.9062 268.371 31.1875C268.64 31.4688 268.775 31.8223 268.775 32.248ZM273.436 34.1172C272.487 34.1172 271.737 33.8281 271.186 33.25C270.639 32.6719 270.366 31.8691 270.366 30.8418C270.366 29.8066 270.619 28.9844 271.127 28.375C271.639 27.7656 272.325 27.4609 273.184 27.4609C273.989 27.4609 274.625 27.7266 275.094 28.2578C275.563 28.7852 275.797 29.4824 275.797 30.3496V30.9648H271.373C271.393 31.7188 271.582 32.291 271.942 32.6816C272.305 33.0723 272.815 33.2676 273.471 33.2676C274.162 33.2676 274.846 33.123 275.522 32.834V33.7012C275.178 33.8496 274.852 33.9551 274.543 34.0176C274.239 34.084 273.869 34.1172 273.436 34.1172ZM273.172 28.2754C272.657 28.2754 272.244 28.4434 271.936 28.7793C271.631 29.1152 271.451 29.5801 271.397 30.1738H274.754C274.754 29.5605 274.617 29.0918 274.344 28.7676C274.071 28.4395 273.68 28.2754 273.172 28.2754ZM280.751 27.4609C281.036 27.4609 281.292 27.4844 281.519 27.5312L281.384 28.4336C281.118 28.375 280.884 28.3457 280.681 28.3457C280.161 28.3457 279.716 28.5566 279.345 28.9785C278.978 29.4004 278.794 29.9258 278.794 30.5547V34H277.821V27.5781H278.624L278.735 28.7676H278.782C279.02 28.3496 279.308 28.0273 279.644 27.8008C279.979 27.5742 280.349 27.4609 280.751 27.4609ZM284.486 34L282.048 27.5781H283.091L284.474 31.3867C284.787 32.2773 284.97 32.8555 285.025 33.1211H285.072C285.115 32.9141 285.25 32.4863 285.476 31.8379C285.707 31.1855 286.22 29.7656 287.017 27.5781H288.06L285.623 34H284.486ZM292.164 34.1172C291.215 34.1172 290.465 33.8281 289.914 33.25C289.367 32.6719 289.094 31.8691 289.094 30.8418C289.094 29.8066 289.348 28.9844 289.856 28.375C290.367 27.7656 291.053 27.4609 291.912 27.4609C292.717 27.4609 293.354 27.7266 293.823 28.2578C294.291 28.7852 294.526 29.4824 294.526 30.3496V30.9648H290.102C290.121 31.7188 290.311 32.291 290.67 32.6816C291.033 33.0723 291.543 33.2676 292.199 33.2676C292.891 33.2676 293.574 33.123 294.25 32.834V33.7012C293.906 33.8496 293.58 33.9551 293.272 34.0176C292.967 34.084 292.598 34.1172 292.164 34.1172ZM291.901 28.2754C291.385 28.2754 290.973 28.4434 290.664 28.7793C290.36 29.1152 290.18 29.5801 290.125 30.1738H293.483C293.483 29.5605 293.346 29.0918 293.073 28.7676C292.799 28.4395 292.408 28.2754 291.901 28.2754ZM300.921 33.1387H300.868C300.419 33.791 299.747 34.1172 298.852 34.1172C298.013 34.1172 297.358 33.8301 296.89 33.2559C296.425 32.6816 296.192 31.8652 296.192 30.8066C296.192 29.748 296.427 28.9258 296.895 28.3398C297.364 27.7539 298.016 27.4609 298.852 27.4609C299.724 27.4609 300.391 27.7773 300.856 28.4102H300.932L300.891 27.9473L300.868 27.4961V24.8828H301.841V34H301.05L300.921 33.1387ZM298.975 33.3027C299.64 33.3027 300.12 33.123 300.417 32.7637C300.718 32.4004 300.868 31.8164 300.868 31.0117V30.8066C300.868 29.8965 300.716 29.248 300.411 28.8613C300.11 28.4707 299.628 28.2754 298.964 28.2754C298.393 28.2754 297.956 28.498 297.651 28.9434C297.35 29.3848 297.2 30.0098 297.2 30.8184C297.2 31.6387 297.35 32.2578 297.651 32.6758C297.952 33.0938 298.393 33.3027 298.975 33.3027Z" fill="black"/>
</svg>
