<svg width="13" height="10" viewBox="0 0 13 10" fill="none" xmlns="http://www.w3.org/2000/svg">
<path d="M3.27898 4.36523H5.69305V5.17383H3.27898V7.66992H2.46453V5.17383H0.0621877V4.36523H2.46453V1.85742H3.27898V4.36523ZM12.5745 2.44922C12.5745 2.99609 12.4202 3.44336 12.1116 3.79102C11.807 4.13867 11.3734 4.37109 10.8109 4.48828V4.53516C11.4984 4.62109 12.0081 4.83984 12.3402 5.19141C12.6722 5.54297 12.8382 6.00391 12.8382 6.57422C12.8382 7.39062 12.555 8.01953 11.9886 8.46094C11.4222 8.89844 10.6175 9.11719 9.57453 9.11719C9.12141 9.11719 8.70539 9.08203 8.32648 9.01172C7.95148 8.94531 7.58625 8.82617 7.23078 8.6543V7.72852C7.60188 7.91211 7.99641 8.05273 8.41438 8.15039C8.83625 8.24414 9.23469 8.29102 9.60969 8.29102C11.0902 8.29102 11.8304 7.71094 11.8304 6.55078C11.8304 5.51172 11.014 4.99219 9.38117 4.99219H8.53742V4.1543H9.39289C10.0609 4.1543 10.5902 4.00781 10.9808 3.71484C11.3714 3.41797 11.5667 3.00781 11.5667 2.48438C11.5667 2.06641 11.4222 1.73828 11.1331 1.5C10.848 1.26172 10.4593 1.14258 9.96711 1.14258C9.59211 1.14258 9.23859 1.19336 8.90656 1.29492C8.57453 1.39648 8.19563 1.58398 7.76984 1.85742L7.27766 1.20117C7.62922 0.923828 8.03352 0.707031 8.49055 0.550781C8.95148 0.390625 9.43586 0.310547 9.94367 0.310547C10.7757 0.310547 11.4222 0.501953 11.8831 0.884766C12.3441 1.26367 12.5745 1.78516 12.5745 2.44922Z" fill="#FF0100"/>
</svg>
