<svg width="76" height="16" viewBox="0 0 76 16" fill="none" xmlns="http://www.w3.org/2000/svg">
<path fill-rule="evenodd" clip-rule="evenodd" d="M7.50046 11.896L3.86499 13.9347L4.5593 9.61671L1.61815 6.55867L5.68272 5.92867L7.50046 2L9.31819 5.92867L13.3828 6.55867L10.4416 9.61671L11.1359 13.9347L7.50046 11.896Z" fill="#1977DA"/>
<path fill-rule="evenodd" clip-rule="evenodd" d="M22.5005 11.896L18.865 13.9347L19.5593 9.61671L16.6181 6.55867L20.6827 5.92867L22.5005 2L24.3182 5.92867L28.3828 6.55867L25.4416 9.61671L26.1359 13.9347L22.5005 11.896Z" fill="#1977DA"/>
<path fill-rule="evenodd" clip-rule="evenodd" d="M37.9414 11.896L34.0921 13.9347L34.8273 9.61671L31.7131 6.55867L36.0168 5.92867L37.9414 2L39.8661 5.92867L44.1698 6.55867L41.0556 9.61671L41.7908 13.9347L37.9414 11.896Z" fill="#1977DA"/>
<path fill-rule="evenodd" clip-rule="evenodd" d="M53.3833 11.896L49.7478 13.9347L50.4421 9.61671L47.501 6.55867L51.5655 5.92867L53.3833 2L55.201 5.92867L59.2656 6.55867L56.3244 9.61671L57.0187 13.9347L53.3833 11.896Z" fill="#1977DA"/>
<path fill-rule="evenodd" clip-rule="evenodd" d="M68.3833 11.896L64.7478 13.9347L65.4421 9.61671L62.501 6.55867L66.5655 5.92867L68.3833 2L70.201 5.92867L74.2656 6.55867L71.3244 9.61671L72.0187 13.9347L68.3833 11.896Z" stroke="#1977DA" stroke-linecap="round" stroke-linejoin="round"/>
</svg>
